<?xml version="1.0" standalone="no"?><!DOCTYPE svg PUBLIC "-//W3C//DTD SVG 1.1//EN" "http://www.w3.org/Graphics/SVG/1.1/DTD/svg11.dtd"><svg t="1769683763702" class="icon" viewBox="0 0 1024 1024" version="1.1" xmlns="http://www.w3.org/2000/svg" p-id="74876" xmlns:xlink="http://www.w3.org/1999/xlink" width="200" height="200"><path d="M281.096 102.677L509.597 234.41 735.49 104.003a36.993 36.993 0 0 1 35.212-0.911l2.07 1.16 184.757 109.362c18.227 10.812 18.02 37.241-0.248 47.763L756.989 376.995l252.03 145.237 0.084 43.91a36.868 36.868 0 0 1-18.932 32.23l-19.884 11.102 38.733 22.286 0.083 39.851a36.92 36.92 0 0 1-18.31 31.898l-20.589 12.013 38.899 22.287-0.083 43.496a36.868 36.868 0 0 1-18.434 31.98l-211.02 121.542a36.744 36.744 0 0 1-36.745 0.083L513.077 803.26l-52.859 30.365-179.454 102.818a37.117 37.117 0 0 1-36.744 0l-38.608-22.121 0.124-0.083-0.041-43.91-19.884 11.35a36.951 36.951 0 0 1-36.703-0.083l-38.65-22.204v-44.49L90.25 826.582a36.951 36.951 0 0 1-37.034 0.083l-37.78-21.831-0.539-573.698 36.827-20.671a36.951 36.951 0 0 1 36.33 0.165l22.163 12.677V177.74l37.738-21.127a36.744 36.744 0 0 1 36.454 0.249l21.086 12.179V124.26l39.188-21.873a36.91 36.91 0 0 1 36.413 0.249z m179.04 622.124L262.454 837.768v43.828l197.682-113.422V724.8z m455.221 22.784L724.926 858.936l39.23 22.038 190.141-111.143-38.94-22.246z m-95.153-54.225L624.759 802.598l44.118 24.772 192.338-110.605-41.011-23.405z m-614.75 65.949l-38.36 22.37 0.082 44.738 38.277-22.12v-44.988zM512.538 518.13l0.165 108.285 0.249-0.124-0.249 19.056 0.166 92.46 0.166 65.328 250.622-141.922-251.12-143.083zM70.034 262.869l1.574 509.571 38.65-22.286-0.041-464.129-40.183-23.156z m390.102 347.764l-197.599 115.37v45.319l197.599-114.334v-46.355zM166.43 318.461l0.621 398.925 38.443-22.162V340.997l-39.023-22.536zM914.86 640.46l-38.36 21.416 40.182 22.991 37.904-21.79-39.727-22.617zM262.785 374.013l-0.207 288.32L512.58 518.13 262.786 373.97z m342.876 90.348l-36.95 21.334 251.036 143.746 37.987-21.542-252.073-143.538z m94.988-54.806l-38.69 22.329L913.12 576.54l39.023-22.122-251.534-144.864zM262.87 266.348l-0.042 44.243 248.759 142.42 36.785-21.252-38.525-21.955-246.977-143.456z m342.503 88.278l-38.732 22.37L605 399.074l38.69-22.37-38.318-22.08zM262.91 157.4v44.656l246.812 142.172 38.69-22.37-38.318-22.08-0.082-0.165L262.91 157.4z m583.267 58.203L661.711 322.107l38.318 22.08 183.555-106.008-37.448-22.576z m-93.745-56.546L566.226 267.094l38.525 22.204 185.75-107.291-38.069-22.95zM166.306 210.26l0.083 45.153 39.106 22.37v-44.74l-39.189-22.783z" fill="#1296db" p-id="74877"></path></svg>